<svg width="132" height="42" viewBox="0 0 132 42" fill="none" xmlns="http://www.w3.org/2000/svg">
<g clip-path="url(#clip0_1_5)">
<path fill-rule="evenodd" clip-rule="evenodd" d="M129.552 19.9057C129.27 19.9066 128.991 19.8516 128.731 19.7442C128.47 19.6367 128.234 19.4787 128.035 19.2794C127.835 19.0801 127.678 18.8434 127.57 18.5829C127.463 18.3224 127.408 18.0432 127.41 17.7615C127.41 16.5846 128.358 15.6047 129.565 15.6047C129.847 15.6038 130.126 15.6587 130.386 15.7662C130.647 15.8737 130.883 16.0317 131.083 16.231C131.282 16.4303 131.439 16.667 131.547 16.9275C131.654 17.188 131.709 17.4672 131.707 17.7489C131.707 18.3206 131.48 18.8688 131.076 19.2733C130.672 19.6777 130.124 19.9052 129.552 19.9057ZM129.565 15.8182C129.31 15.8163 129.057 15.8653 128.821 15.9624C128.584 16.0595 128.37 16.2028 128.19 16.3838C128.01 16.5648 127.869 16.7799 127.773 17.0165C127.677 17.2531 127.63 17.5063 127.634 17.7615C127.634 18.8294 128.459 19.69 129.552 19.69C129.807 19.6917 130.06 19.6426 130.296 19.5455C130.531 19.4484 130.745 19.3053 130.925 19.1246C131.105 18.9439 131.247 18.7291 131.343 18.4929C131.439 18.2567 131.486 18.0038 131.483 17.7489C131.487 17.4953 131.44 17.2436 131.346 17.0084C131.251 16.7732 131.11 16.5594 130.931 16.3795C130.752 16.1996 130.539 16.0572 130.305 15.9608C130.07 15.8645 129.818 15.816 129.565 15.8182ZM130.038 17.9688L130.646 18.8189H130.135L129.59 18.04H129.119V18.8189H128.691V16.5679H129.697C130.218 16.5679 130.562 16.8359 130.562 17.2861C130.562 17.6547 130.348 17.8808 130.038 17.9688ZM129.678 16.9532H129.119V17.6651H129.678C129.956 17.6651 130.122 17.529 130.122 17.3092C130.122 17.0788 129.954 16.9532 129.678 16.9532ZM102.86 9.58231C102.28 9.58203 101.724 9.81187 101.314 10.2213C100.905 10.6306 100.674 11.1861 100.674 11.7653C100.674 12.3445 100.904 12.9002 101.313 13.31C101.722 13.7197 102.278 13.9501 102.857 13.9504C103.437 13.9504 103.993 13.7202 104.403 13.3104C104.813 12.9006 105.043 12.3448 105.043 11.7653C105.043 11.1858 104.813 10.63 104.403 10.2202C103.993 9.81043 103.437 9.58021 102.857 9.58021M104.366 15.6319H101.32C101.261 15.6324 101.205 15.6563 101.163 15.6982C101.121 15.7402 101.098 15.7969 101.098 15.8559V29.1445C101.098 29.2701 101.196 29.3685 101.32 29.3685H104.368C104.427 29.3685 104.484 29.3449 104.526 29.3029C104.568 29.2609 104.592 29.2039 104.592 29.1445V15.8559C104.592 15.7965 104.568 15.7395 104.526 15.6975C104.484 15.6555 104.425 15.6319 104.366 15.6319ZM111.139 15.6444V15.2256C111.139 13.986 111.615 13.4332 112.681 13.4332C113.315 13.4332 113.824 13.5588 114.398 13.7515C114.432 13.7629 114.468 13.766 114.503 13.7607C114.538 13.7553 114.572 13.7416 114.6 13.7206C114.629 13.6997 114.652 13.6722 114.668 13.6404C114.684 13.6086 114.692 13.5734 114.692 13.5379V10.9727C114.691 10.9248 114.676 10.8782 114.647 10.8397C114.618 10.8013 114.578 10.773 114.532 10.7591C113.711 10.5084 112.856 10.3855 111.998 10.3948C109.185 10.3948 107.698 11.9799 107.698 14.9765V15.6214H106.234C106.175 15.6214 106.118 15.6447 106.076 15.6863C106.034 15.7279 106.01 15.7843 106.01 15.8434V18.4755C106.01 18.5991 106.11 18.6996 106.234 18.6996H107.698V29.1486C107.698 29.2701 107.796 29.3706 107.92 29.3706H110.967C111.027 29.3701 111.083 29.3462 111.125 29.3043C111.166 29.2623 111.189 29.2056 111.189 29.1466V18.6975H114.034L118.393 29.1466C117.898 30.2417 117.412 30.4616 116.748 30.4616C116.21 30.4616 115.645 30.3003 115.066 29.9842C115.04 29.9698 115.01 29.9609 114.98 29.9581C114.95 29.9552 114.919 29.9584 114.891 29.9674C114.861 29.9774 114.834 29.9933 114.812 30.0142C114.789 30.0351 114.771 30.0605 114.759 30.0889L113.726 32.3525C113.702 32.4036 113.698 32.4619 113.716 32.5156C113.733 32.5693 113.771 32.6143 113.82 32.6414C114.899 33.2257 115.873 33.4749 117.075 33.4749C119.325 33.4749 120.569 32.4279 121.664 29.6072L126.951 15.9502C126.965 15.9163 126.97 15.8796 126.966 15.8433C126.962 15.8069 126.949 15.7721 126.929 15.7418C126.908 15.7116 126.881 15.6869 126.848 15.6699C126.816 15.6529 126.78 15.6442 126.743 15.6444H123.572C123.526 15.6449 123.481 15.6597 123.444 15.6867C123.406 15.7136 123.378 15.7516 123.363 15.7952L120.112 25.0737L116.551 15.7889C116.536 15.7466 116.507 15.7101 116.47 15.6843C116.433 15.6585 116.389 15.6446 116.344 15.6444H111.139ZM99.458 15.6319H96.1068V12.204C96.1068 12.1747 96.101 12.1456 96.0897 12.1186C96.0784 12.0915 96.0618 12.0669 96.041 12.0463C96.0202 12.0257 95.9954 12.0094 95.9683 11.9983C95.9411 11.9873 95.912 11.9818 95.8826 11.982H92.8351C92.7764 11.9826 92.7202 12.0061 92.6787 12.0476C92.6372 12.0892 92.6136 12.1453 92.6131 12.204V15.6319H91.1469C91.1176 15.6319 91.0885 15.6377 91.0615 15.649C91.0344 15.6603 91.0098 15.6768 90.9892 15.6976C90.9685 15.7185 90.9522 15.7432 90.9412 15.7703C90.9302 15.7975 90.9246 15.8266 90.9249 15.8559V18.4734C90.9249 18.597 91.0254 18.6975 91.1469 18.6975H92.6131V25.4695C92.6131 28.2084 93.9745 29.5947 96.6639 29.5947C97.7573 29.5947 98.6621 29.3706 99.5167 28.8869C99.5512 28.8675 99.5799 28.8392 99.5997 28.8049C99.6196 28.7707 99.63 28.7317 99.6298 28.6922V26.2003C99.6303 26.1621 99.621 26.1244 99.6026 26.0908C99.5843 26.0573 99.5577 26.029 99.5252 26.0088C99.4928 25.9886 99.4557 25.9771 99.4175 25.9754C99.3793 25.9737 99.3413 25.982 99.3072 25.9993C98.7207 26.2945 98.1531 26.4306 97.5185 26.4306C96.5403 26.4306 96.1047 25.9888 96.1047 24.9941V18.6975H99.4559C99.4854 18.6978 99.5147 18.6922 99.542 18.681C99.5693 18.6698 99.5942 18.6533 99.615 18.6325C99.6359 18.6116 99.6524 18.5868 99.6635 18.5595C99.6747 18.5322 99.6803 18.5029 99.68 18.4734V15.8559C99.6803 15.8266 99.6748 15.7975 99.6637 15.7703C99.6527 15.7432 99.6364 15.7185 99.6158 15.6976C99.5951 15.6768 99.5705 15.6603 99.5435 15.649C99.5164 15.6377 99.4873 15.6319 99.458 15.6319ZM83.3909 15.3534C79.2856 15.3534 76.0663 18.5153 76.0663 22.5505C76.0663 26.5437 79.2626 29.6701 83.3406 29.6701C87.4605 29.6701 90.6882 26.5207 90.6882 22.5002C90.6882 18.4923 87.4836 15.3534 83.3909 15.3534ZM83.3909 26.5814C81.2063 26.5814 79.5579 24.8266 79.5579 22.4981C79.5579 20.1633 81.1497 18.4692 83.3406 18.4692C85.5399 18.4692 87.1945 20.224 87.1945 22.5525C87.1945 24.8874 85.5964 26.5814 83.3909 26.5814ZM68.6998 15.3534C66.9823 15.3534 65.5748 16.0297 64.4144 17.4139V15.8559C64.4144 15.7969 64.3911 15.7402 64.3495 15.6982C64.308 15.6563 64.2515 15.6324 64.1924 15.6319H61.1449C61.0858 15.6324 61.0293 15.6563 60.9878 15.6982C60.9462 15.7402 60.9228 15.7969 60.9229 15.8559V33.1733C60.9229 33.2948 61.0234 33.3953 61.1449 33.3953H64.1924C64.2511 33.3947 64.3073 33.3712 64.3488 33.3297C64.3903 33.2882 64.4139 33.232 64.4144 33.1733V27.708C65.5769 29.0083 66.9844 29.6449 68.6998 29.6449C71.8877 29.6449 75.1154 27.1908 75.1154 22.5002C75.1154 17.8096 71.8898 15.3534 68.6998 15.3534ZM71.5735 22.5002C71.5735 24.8874 70.1011 26.5563 67.994 26.5563C65.9099 26.5563 64.339 24.812 64.339 22.5002C64.339 20.1884 65.9099 18.4441 67.994 18.4441C70.0676 18.4441 71.5735 20.1486 71.5735 22.5002ZM53.9041 18.7101C50.5026 17.8976 49.8972 17.328 49.8972 16.1323C49.8972 15.0016 50.9613 14.2415 52.5447 14.2415C54.0779 14.2415 55.6006 14.8173 57.1946 16.0067C57.2183 16.0242 57.2453 16.0369 57.274 16.044C57.3027 16.0511 57.3325 16.0524 57.3617 16.0479C57.3909 16.0435 57.4189 16.0333 57.4442 16.0179C57.4694 16.0026 57.4914 15.9824 57.5088 15.9585L59.1718 13.6154C59.2041 13.5691 59.2177 13.5123 59.21 13.4564C59.2022 13.4005 59.1736 13.3496 59.1299 13.3138C57.2323 11.7894 55.0938 11.0502 52.595 11.0502C48.9191 11.0502 46.3533 13.2531 46.3533 16.4087C46.3533 19.7906 48.5672 20.9883 52.3939 21.9118C55.6488 22.6614 56.1997 23.2896 56.1997 24.4141C56.1997 25.6579 55.0896 26.4306 53.2988 26.4306C51.3131 26.4306 49.6941 25.7606 47.8802 24.1942C47.8348 24.1557 47.7763 24.1362 47.7168 24.1398C47.6873 24.1421 47.6585 24.1503 47.6323 24.164C47.606 24.1777 47.5828 24.1965 47.5639 24.2194L45.6998 26.4348C45.6618 26.479 45.6429 26.5364 45.6472 26.5945C45.6515 26.6527 45.6787 26.7067 45.7228 26.7447C47.7767 28.605 50.452 29.6305 53.2234 29.6198C57.182 29.6198 59.7415 27.4567 59.7415 24.1105C59.7415 21.2815 58.0513 19.7173 53.9041 18.708M19.935 0.638832C14.7077 0.638832 9.6945 2.71484 5.99825 6.41016C2.302 10.1055 0.225464 15.1174 0.225464 20.3434C0.225464 25.5693 2.302 30.5813 5.99825 34.2766C9.6945 37.9719 14.7077 40.0479 19.935 40.0479C25.1623 40.0479 30.1755 37.9719 33.8717 34.2766C37.568 30.5813 39.6445 25.5693 39.6445 20.3434C39.6445 15.1174 37.568 10.1055 33.8717 6.41016C30.1755 2.71484 25.1623 0.638832 19.935 0.638832ZM28.975 29.0586C28.891 29.1966 28.7806 29.3167 28.6502 29.4119C28.5197 29.5072 28.3717 29.5757 28.2146 29.6136C28.0576 29.6516 27.8946 29.6581 27.735 29.633C27.5755 29.6078 27.4224 29.5514 27.2847 29.4669C22.6558 26.64 16.833 26.0014 9.97131 27.5677C9.81412 27.6036 9.65139 27.6081 9.49242 27.5812C9.33346 27.5542 9.18137 27.4961 9.04483 27.4104C8.90829 27.3246 8.78999 27.2128 8.69667 27.0814C8.60335 26.9499 8.53685 26.8014 8.50095 26.6442C8.46506 26.4871 8.46048 26.3244 8.48747 26.1655C8.51446 26.0065 8.5725 25.8545 8.65827 25.718C8.74405 25.5815 8.85587 25.4632 8.98736 25.3699C9.11886 25.2766 9.26744 25.2101 9.42464 25.1742C16.9314 23.4572 23.3721 24.1963 28.5666 27.3708C29.1446 27.7247 29.3269 28.4807 28.975 29.0586ZM31.3837 23.6938C31.1706 24.0404 30.8286 24.2885 30.4328 24.3835C30.037 24.4785 29.6197 24.4127 29.2724 24.2005C23.9753 20.9444 15.8988 20.0021 9.632 21.9034C9.25071 21.9938 8.84928 21.9355 8.50953 21.7403C8.16977 21.545 7.91727 21.2276 7.8035 20.8527C7.68972 20.4779 7.72322 20.0737 7.89718 19.7226C8.07114 19.3716 8.37246 19.1001 8.73973 18.9634C15.8988 16.7919 24.7964 17.8452 30.8789 21.5809C31.0512 21.6864 31.201 21.8249 31.3197 21.9883C31.4384 22.1517 31.5237 22.3369 31.5708 22.5334C31.6179 22.7298 31.6258 22.9336 31.594 23.133C31.5623 23.3325 31.4915 23.5238 31.3858 23.6959M31.5952 18.107C25.2404 14.3357 14.7594 13.9881 8.69574 15.8308C8.46305 15.905 8.21792 15.9323 7.9746 15.9109C7.73128 15.8896 7.49463 15.8201 7.2784 15.7066C7.06217 15.593 6.87067 15.4376 6.71504 15.2494C6.5594 15.0612 6.44273 14.844 6.37181 14.6103C6.30088 14.3766 6.27712 14.1312 6.3019 13.8883C6.32668 13.6454 6.39951 13.4098 6.51616 13.1952C6.6328 12.9807 6.79093 12.7915 6.98136 12.6386C7.1718 12.4856 7.39073 12.3721 7.62544 12.3045C14.5856 10.1896 26.1599 10.6 33.4719 14.9388C33.8925 15.1881 34.1967 15.5943 34.3177 16.0679C34.4386 16.5415 34.3665 17.0437 34.1171 17.4641C33.8676 17.8845 33.4614 18.1887 32.9877 18.3096C32.5139 18.4306 32.0116 18.3584 31.5911 18.1091" fill="white"/>
</g>
<defs>
<clipPath id="clip0_1_5">
<rect width="132" height="41.88" fill="white"/>
</clipPath>
</defs>
</svg>
